#!OML:ASF F:\VICON\USERDATA\INSTALL\Justin_Nancy\Justin_Nancy.ASF
:FULLY-SPECIFIED
:DEGREES
230
root -0.262033 17.0425 29.9655 -3.0759 4.81906 -0.405599
lowerback 6.08882 -2.1366 -1.65306
upperback 0.1744 -2.85708 3.27563
thorax -2.98394 -1.38064 4.56348
lowerneck -17.6464 -2.47531 -10.2805
upperneck 20.3541 -1.48596 3.9694
head 9.46591 -1.0484 2.88398
rclavicle -1.83192e-014 -1.19271e-014
rhumerus -44.1436 -19.6995 -70.1002
rradius 23.6971
rwrist 12.3721
rhand -13.9737 9.48659
rfingers 7.12502
rthumb 12.1545 -20.1403
lclavicle -1.83192e-014 -1.19271e-014
lhumerus -27.9323 1.86907 81.3829
lradius 41.9146
lwrist 0.39933
lhand -16.923 21.3037
lfingers 7.12502
lthumb 9.30967 51.0781
rfemur -20.2912 3.74675 24.4983
rtibia 32.6519
rfoot -5.46746 -4.11102
rtoes 2.22166
lfemur -0.362925 -4.9604 -19.1538
ltibia 59.6669
lfoot 30.505 -14.7978
ltoes 4.19081
231
root -0.274003 17.0935 30.2196 -3.06437 4.52287 -0.563462
lowerback 5.99796 -1.96569 -1.4802
upperback 0.220368 -2.61795 3.26888
thorax -2.91489 -1.26556 4.4341
lowerneck -17.6817 -2.58666 -10.3365
upperneck 20.4154 -1.65912 4.12832
head 9.50888 -1.11652 2.92699
rclavicle -4.16205e-016 9.54166e-015
rhumerus -43.4079 -19.5759 -70.4735
rradius 23.5
rwrist 12.2649
rhand -14.1438 9.67446
rfingers 7.12502
rthumb 11.9905 -19.9621
lclavicle -4.16205e-016 9.54166e-015
lhumerus -28.0255 1.81529 81.5823
lradius 41.4675
lwrist 0.286523
lhand -17.0437 21.6519
lfingers 7.12502
lthumb 9.19317 51.4315
rfemur -19.3518 4.28292 24.8588
rtibia 32.3071
rfoot -5.96319 -4.39268
rtoes 3.65267
lfemur -2.12973 -4.48523 -18.8186
ltibia 61.5305
lfoot 26.7839 -14.318
ltoes 4.71061
232
root -0.284393 17.115 30.4733 -3.10034 4.14993 -0.791724
lowerback 5.67652 -1.79385 -1.3134
upperback 0.384778 -2.38 3.3256
thorax -2.58971 -1.15658 4.36165
lowerneck -17.5838 -2.62805 -10.3431
upperneck 20.3412 -1.7377 4.17982
head 9.47138 -1.14676 2.93472
rclavicle 2.79541e-015 -1.59028e-015
rhumerus -42.4849 -19.3997 -70.874
rradius 23.3507
rwrist 12.4124
rhand -14.3426 10.2892
rfingers 7.12502
rthumb 11.7988 -19.3585
lclavicle 2.79541e-015 -1.59028e-015
lhumerus -28.1469 1.83976 81.7998
lradius 41.0059
lwrist 0.0405642
lhand -17.2924 22.6085
lfingers 7.12502
lthumb 8.95316 52.3985
rfemur -18.0804 4.78528 25.3562
rtibia 31.91
rfoot -6.60743 -4.90498
rtoes 3.15527
lfemur -3.8018 -3.86078 -18.4182
ltibia 63.2981
lfoot 22.5156 -13.8164
ltoes 1.42646
233
root -0.29338 17.1365 30.7151 -3.1073 3.73533 -1.09601
lowerback 5.63583 -1.64154 -1.04707
upperback 0.367229 -2.15697 3.41837
thorax -2.61014 -1.04714 4.29034
lowerneck -17.3273 -2.60012 -10.4595
upperneck 20.355 -1.71938 4.27753
head 9.4296 -1.13883 2.9913
rclavicle -9.26212e-015 1.98785e-014
rhumerus -41.7303 -18.9845 -71.2891
rradius 23.2819
rwrist 12.5461
rhand -14.508 10.5158
rfingers 7.12502
rthumb 11.6393 -19.1409
lclavicle -9.26212e-015 1.98785e-014
lhumerus -28.4928 1.93603 81.9708
lradius 40.4915
lwrist -0.445869
lhand -18.0485 19.7969
lfingers 7.12502
lthumb 8.22351 49.6169
rfemur -16.9158 5.11096 25.9287
rtibia 31.4805
rfoot -7.1887 -5.0535
rtoes 3.16595
lfemur -5.53804 -3.15949 -17.9393
ltibia 64.8878
lfoot 18.4838 -13.7791
ltoes -2.11938
234
root -0.301182 17.1574 30.9425 -2.94202 3.21707 -1.47549
lowerback 5.64193 -1.46379 -0.649831
upperback 0.262156 -1.88907 3.50742
thorax -2.75377 -0.914157 4.14153
lowerneck -17.2682 -2.52601 -10.3877
upperneck 20.4228 -1.66105 4.35084
head 9.43655 -1.09986 3.01427
rclavicle 3.50855e-014 -2.78299e-014
rhumerus -41.0498 -18.9017 -71.5204
rradius 23.3232
rwrist 13.1321
rhand -14.2028 10.0852
rfingers 7.12502
rthumb 11.9336 -19.5546
lclavicle 3.50855e-014 -2.78299e-014
lhumerus -28.9329 2.15288 82.0723
lradius 40.2096
lwrist -1.06295
lhand -17.0865 23.7651
lfingers 7.12502
lthumb 9.15189 53.5465
rfemur -16.0383 5.26109 26.563
rtibia 31.0486
rfoot -7.76335 -4.88971
rtoes 2.30365
lfemur -7.60464 -2.35518 -17.341
ltibia 66.3254
lfoot 14.9231 -13.641
ltoes -2.76557
235
root -0.303963 17.1802 31.17 -2.78733 2.76993 -1.70177
lowerback 5.62791 -1.30659 -0.361278
upperback 0.205184 -1.65855 3.53215
thorax -2.82972 -0.800947 3.98739
lowerneck -17.2199 -2.43622 -10.2247
upperneck 20.4064 -1.58286 4.33475
head 9.41286 -1.05243 2.99188
rclavicle 1.41634e-014 -1.19271e-014
rhumerus -40.21 -18.6606 -71.9257
rradius 23.314
rwrist 13.5558
rhand -14.2382 10.5016
rfingers 7.12502
rthumb 11.8994 -19.1403
lclavicle 1.41634e-014 -1.19271e-014
lhumerus -29.4098 2.29114 82.1709
lradius 40.095
lwrist -1.60252
lhand -16.2414 25.4842
lfingers 7.12502
lthumb 9.96725 55.2283
rfemur -15.1286 5.26218 26.9709
rtibia 30.6336
rfoot -8.37373 -4.73215
rtoes 2.0634
lfemur -9.58399 -1.73232 -17.0101
ltibia 67.4218
lfoot 11.4372 -12.955
ltoes -6.35584
236
root -0.295967 17.2012 31.3994 -2.66777 2.5401 -1.53359
lowerback 5.72147 -1.18064 -0.34035
upperback 0.108191 -1.48811 3.42604
thorax -2.99785 -0.713754 3.8567
lowerneck -17.0789 -2.51965 -10.3449
upperneck 20.5585 -1.6989 4.39949
head 9.45174 -1.11339 3.02169
rclavicle -3.81418e-015 -1.11319e-014
rhumerus -39.4514 -18.2839 -72.3444
rradius 23.3216
rwrist 13.7
rhand -14.4797 11.2474
rfingers 7.12502
rthumb 11.6666 -18.4078
lclavicle -3.81418e-015 -1.11319e-014
lhumerus -29.8578 2.26175 82.3455
lradius 39.7234
lwrist -2.0369
lhand -15.4706 26.4412
lfingers 7.12502
lthumb 10.7109 56.1481
rfemur -14.1507 4.92635 26.8683
rtibia 30.2351
rfoot -9.0153 -4.39034
rtoes 1.88925
lfemur -11.3531 -1.44326 -17.2899
ltibia 68.149
lfoot 8.3921 -11.8956
ltoes -10.8227
237
root -0.293133 17.2214 31.637 -2.58069 2.34993 -1.43857
lowerback 5.86018 -1.10875 -0.302558
upperback -0.0625457 -1.38537 3.34818
thorax -3.26218 -0.658849 3.75362
lowerneck -16.8795 -2.54227 -10.297
upperneck 20.8343 -1.73912 4.2711
head 9.51424 -1.15093 2.96768
rclavicle 1.71592e-014 -1.59028e-014
rhumerus -38.7933 -17.4226 -72.9644
rradius 23.5268
rwrist 13.4333
rhand -14.5325 11.0922
rfingers 7.12502
rthumb 11.6156 -18.5659
lclavicle 1.71592e-014 -1.59028e-014
lhumerus -30.4955 2.35335 82.4572
lradius 39.2612
lwrist -2.57568
lhand -15.1469 26.4588
lfingers 7.12502
lthumb 11.0231 56.1494
rfemur -13.0813 4.7345 26.8754
rtibia 29.8278
rfoot -9.52481 -4.27737
rtoes 2.40826
lfemur -12.915 -1.16609 -17.4729
ltibia 68.6217
lfoot 6.02784 -11.2027
ltoes -11.6319
238
root -0.302016 17.2301 31.8765 -2.62261 1.85835 -1.79414
lowerback 5.87382 -0.957631 -0.00527053
upperback -0.0130348 -1.16119 3.44476
thorax -3.23754 -0.551835 3.66681
lowerneck -16.7485 -2.51887 -10.1682
upperneck 20.787 -1.72129 4.12412
head 9.46973 -1.1489 2.89634
rclavicle 1.3244e-014 -1.82882e-014
rhumerus -37.8218 -16.8478 -73.543
rradius 23.6782
rwrist 13.3181
rhand -14.3725 10.9546
rfingers 7.12502
rthumb 11.7699 -18.6947
lclavicle 1.3244e-014 -1.82882e-014
lhumerus -30.966 2.55009 82.6174
lradius 39.0491
lwrist -3.08987
lhand -14.6838 27.1789
lfingers 7.12502
lthumb 11.4697 56.8452
rfemur -11.8462 4.96342 27.5021
rtibia 29.3985
rfoot -9.78016 -4.4512
rtoes 3.06242
lfemur -14.3224 -0.596907 -17.0273
ltibia 68.978
lfoot 3.99524 -10.8086
ltoes -10.8155
